<?xml version="1.0" standalone="no"?>
<!DOCTYPE svg PUBLIC "-//W3C//DTD SVG 20010904//EN"
 "http://www.w3.org/TR/2001/REC-SVG-20010904/DTD/svg10.dtd">
<svg version="1.0" xmlns="http://www.w3.org/2000/svg"
 width="900.000000pt" height="177.000000pt" viewBox="0 0 900.000000 177.000000"
 preserveAspectRatio="xMidYMid meet">
<metadata>
Created by potrace 1.10, written by Peter Selinger 2001-2011
</metadata>
<g transform="translate(0.000000,177.000000) scale(0.100000,-0.100000)"
fill="#ebdb00" stroke="none">
<path d="M0 1645 l0 -25 4500 0 4500 0 0 25 0 25 -4500 0 -4500 0 0 -25z"/>
<path d="M516 1533 c-3 -4 -6 -33 -6 -65 0 -52 2 -58 21 -58 32 0 59 -19 59
-41 0 -14 9 -21 29 -25 56 -12 49 -86 -9 -97 -24 -5 -30 -12 -30 -32 0 -18 -7
-26 -27 -31 -29 -8 -57 5 -59 27 -1 8 -2 20 -3 27 -1 9 -17 12 -58 10 l-58 -3
2 -50 c1 -27 2 -53 2 -57 1 -4 13 -8 29 -10 24 -3 27 -7 27 -43 0 -34 -4 -40
-25 -45 -16 -4 -26 -14 -28 -28 -4 -28 -42 -47 -76 -38 -21 5 -26 13 -26 36 0
25 -4 30 -25 30 -19 0 -28 8 -39 35 -15 34 -17 35 -70 35 l-56 0 0 -60 c0 -52
2 -60 19 -60 34 0 51 -12 51 -35 0 -23 17 -35 51 -35 16 0 19 -7 19 -45 0 -38
-3 -45 -19 -45 -34 0 -51 -12 -51 -35 0 -23 -17 -35 -51 -35 -17 0 -19 -8 -19
-60 l0 -61 57 3 c55 3 58 4 66 35 7 24 16 33 36 35 17 2 27 10 29 23 6 31 22
45 52 45 30 0 46 -14 51 -45 3 -11 15 -22 29 -25 20 -5 26 -13 28 -43 3 -29
-1 -38 -15 -43 -46 -14 -50 -27 -44 -114 1 -5 25 -10 55 -10 52 0 55 1 58 26
4 36 29 51 65 38 20 -7 28 -16 28 -34 0 -21 5 -26 32 -28 22 -2 33 -9 37 -25
9 -38 -4 -66 -32 -69 -18 -2 -28 -10 -30 -23 -6 -31 -22 -45 -53 -45 -29 0
-29 -1 -29 -60 l0 -60 58 0 c57 0 58 1 67 32 8 26 17 34 40 38 23 4 31 11 33
32 4 30 23 41 58 32 17 -4 24 -13 24 -29 0 -23 17 -35 50 -35 14 0 21 -10 26
-35 l6 -36 52 3 51 3 3 58 c3 54 2 57 -21 57 -29 0 -47 17 -47 46 0 17 -7 23
-27 26 -25 3 -28 7 -28 43 0 36 3 40 30 45 23 4 30 11 30 29 1 52 83 53 95 1
5 -23 11 -25 60 -25 l55 0 0 55 c0 53 -1 55 -27 58 -20 2 -30 10 -34 27 -10
40 -1 59 31 65 24 4 31 11 35 35 4 21 12 31 27 33 31 5 61 -14 65 -40 2 -17
11 -24 30 -26 22 -3 29 -10 34 -38 l6 -35 52 3 51 3 3 56 c3 55 2 56 -27 62
-23 5 -30 12 -33 34 -2 22 -9 29 -33 33 -27 5 -30 9 -30 45 0 36 3 40 30 45
24 4 31 11 35 35 4 24 11 31 33 33 26 3 27 5 27 63 l0 59 -54 0 c-54 0 -54 0
-60 -35 -6 -29 -11 -35 -32 -35 -15 0 -27 -7 -30 -17 -12 -39 -22 -48 -55 -48
-30 0 -34 4 -39 30 -4 24 -11 31 -35 35 -27 5 -30 9 -30 45 0 36 3 40 30 45
29 5 30 7 30 60 l0 55 -57 3 c-55 3 -57 2 -60 -25 -5 -48 -90 -59 -94 -12 -1
8 -2 19 -3 26 0 6 -13 13 -28 15 -25 3 -28 7 -31 46 -2 29 1 42 10 43 7 1 20
2 28 3 8 0 16 10 18 21 6 30 22 45 49 45 23 0 24 2 21 63 l-3 62 -51 3 -51 3
-7 -41 c-5 -30 -11 -40 -25 -40 -33 0 -51 -11 -51 -31 0 -22 -41 -45 -64 -36
-8 3 -16 18 -18 34 -2 22 -9 29 -33 33 -23 4 -31 11 -33 30 -2 14 -8 30 -13
37 -10 11 -102 17 -113 6z m274 -368 c4 -25 10 -31 37 -33 26 -3 32 -8 37 -37
5 -27 12 -34 34 -37 22 -2 28 -9 30 -35 3 -28 7 -33 30 -33 36 0 49 -10 53
-40 3 -19 11 -26 32 -28 25 -3 27 -7 27 -47 0 -40 -2 -44 -27 -47 -19 -2 -29
-10 -31 -23 -5 -26 -30 -45 -58 -45 -18 0 -23 -6 -26 -32 -2 -27 -8 -34 -30
-36 -22 -3 -29 -10 -34 -37 -5 -29 -11 -34 -38 -37 -24 -2 -31 -8 -31 -25 -1
-31 -18 -45 -51 -41 -23 2 -30 9 -34 33 -4 25 -10 30 -38 33 -27 3 -34 8 -38
31 -4 19 -16 33 -37 42 -23 10 -33 22 -35 42 -3 20 -9 27 -26 27 -28 0 -46 18
-46 46 0 17 -7 23 -27 26 -25 3 -28 7 -28 43 0 36 3 40 28 43 25 3 32 12 28
36 -3 16 22 36 45 36 17 0 23 6 26 28 2 19 12 31 36 42 22 10 35 24 39 42 4
21 12 28 37 30 22 2 32 9 34 23 7 41 12 46 44 43 28 -3 34 -8 38 -33z"/>
<path d="M726 1028 c-3 -7 -6 -22 -8 -33 -2 -13 -14 -22 -33 -25 -17 -4 -29
-12 -27 -18 5 -24 -19 -52 -42 -52 -45 0 -41 -45 4 -51 18 -3 28 -13 34 -36 7
-24 16 -33 35 -35 20 -2 27 -10 31 -33 7 -41 44 -43 48 -3 3 21 10 29 30 34
46 10 53 14 47 24 -11 18 15 50 40 50 20 0 25 5 25 25 0 20 -5 25 -25 25 -25
0 -46 26 -38 47 5 13 -2 17 -49 27 -20 5 -27 13 -30 33 -3 29 -35 45 -42 21z
m59 -153 c0 -39 -1 -40 -37 -43 l-38 -3 0 46 0 46 38 -3 c36 -3 37 -4 37 -43z"/>
<path d="M1643 1523 c-9 -23 6 -43 31 -43 21 0 25 -5 28 -32 3 -28 8 -34 33
-38 24 -4 31 -11 33 -33 3 -20 10 -28 30 -33 48 -10 51 -12 54 -41 5 -42 35
-43 46 -1 6 26 15 34 38 38 23 4 30 11 34 35 4 24 11 31 33 33 21 3 27 9 27
27 0 26 37 58 61 53 9 -2 14 6 14 22 0 23 -4 25 -50 27 -55 3 -75 -12 -75 -53
0 -18 -6 -23 -32 -26 -28 -2 -33 -7 -31 -26 6 -49 -82 -49 -89 0 -2 17 -11 24
-31 26 -29 3 -31 6 -41 53 -5 25 -10 27 -57 26 -32 -1 -53 -6 -56 -14z"/>
<path d="M2760 1475 c0 -61 1 -65 23 -65 27 0 47 -17 47 -42 0 -12 11 -19 36
-24 34 -6 35 -8 32 -48 -3 -37 -6 -41 -33 -46 -19 -3 -31 -12 -33 -25 -6 -30
-22 -45 -46 -45 -29 0 -46 18 -46 47 0 23 -3 24 -57 21 l-58 -3 0 -55 c0 -53
1 -55 30 -60 27 -5 30 -9 30 -45 0 -36 -3 -40 -30 -45 -21 -4 -31 -12 -33 -27
-4 -30 -26 -45 -59 -41 -22 2 -29 9 -33 33 -4 20 -12 31 -29 35 -24 5 -34 18
-45 53 -4 13 -17 17 -61 17 l-55 0 0 -60 c0 -52 2 -60 19 -60 34 0 51 -12 51
-36 0 -18 7 -25 33 -32 29 -8 32 -12 32 -47 0 -35 -3 -39 -32 -47 -22 -6 -33
-15 -33 -26 0 -25 -20 -42 -47 -42 -21 0 -23 -4 -23 -60 l0 -60 55 0 c53 0 55
1 69 34 10 23 22 35 38 38 17 2 24 10 26 30 6 51 88 51 94 0 2 -21 9 -28 33
-32 27 -5 30 -9 30 -45 0 -36 -3 -40 -30 -45 -29 -5 -30 -7 -30 -60 l0 -55 57
-3 c55 -3 57 -2 60 24 4 34 27 49 61 40 19 -4 27 -14 29 -33 2 -22 9 -29 33
-33 27 -5 30 -9 30 -44 0 -36 -3 -40 -32 -48 -22 -6 -33 -15 -33 -26 0 -25
-20 -42 -47 -42 -21 0 -23 -4 -23 -60 l0 -61 57 3 c56 3 58 4 63 33 4 25 10
30 38 33 30 3 36 10 33 38 -2 21 27 36 59 29 23 -5 30 -12 30 -31 0 -19 6 -26
31 -31 31 -6 33 -8 43 -54 5 -24 9 -26 58 -25 l53 1 0 60 c0 58 -1 60 -27 63
-22 3 -30 10 -36 35 -6 25 -14 33 -35 35 -19 2 -29 11 -33 27 -10 40 4 65 37
65 24 0 29 4 29 23 0 31 18 47 51 47 30 0 43 -14 44 -45 0 -18 7 -20 60 -20
l60 0 -1 55 c0 52 -1 55 -28 58 -56 7 -57 92 0 92 19 0 26 6 31 31 7 35 22 44
58 35 18 -5 25 -13 25 -30 0 -24 17 -36 51 -36 13 0 19 -7 19 -22 0 -40 14
-49 66 -46 l49 3 3 58 c3 54 2 57 -21 57 -29 0 -47 18 -47 47 0 19 -5 23 -30
23 -23 0 -31 5 -36 24 -9 38 4 64 34 68 18 2 28 10 30 23 6 30 22 45 49 45 23
0 24 2 21 58 l-3 57 -51 3 c-50 3 -51 2 -60 -29 -7 -25 -17 -35 -42 -41 -25
-7 -32 -14 -32 -33 0 -43 -82 -46 -86 -4 -1 8 -2 20 -3 27 0 6 -12 12 -26 12
-57 0 -54 85 2 92 27 3 28 5 28 58 l0 55 -39 3 c-61 5 -88 -5 -84 -30 2 -17
-4 -25 -25 -32 -36 -13 -61 2 -65 38 -3 21 -8 26 -32 26 -54 0 -54 86 0 97 19
3 30 12 30 22 0 24 20 41 47 41 23 0 24 3 21 63 l-3 62 -52 2 c-50 1 -53 0
-59 -25 -10 -47 -12 -49 -43 -55 -22 -5 -31 -12 -31 -26 0 -11 -10 -25 -21
-32 -31 -16 -69 3 -69 35 0 21 -5 25 -32 28 -28 3 -33 7 -36 33 -5 38 -16 45
-74 45 l-48 0 0 -65z m266 -283 c7 -4 14 -18 15 -32 3 -19 11 -26 34 -30 24
-4 31 -11 35 -35 4 -24 11 -31 35 -35 25 -4 31 -10 33 -38 3 -26 8 -32 26 -32
26 0 64 -25 54 -36 -12 -12 13 -34 38 -34 22 0 24 -4 24 -45 0 -41 -2 -45 -24
-45 -25 0 -50 -22 -38 -34 10 -11 -28 -36 -54 -36 -18 0 -23 -6 -26 -32 -2
-28 -8 -34 -30 -36 -22 -3 -30 -10 -36 -35 -6 -25 -15 -33 -38 -37 -22 -4 -30
-11 -33 -30 -1 -14 -8 -28 -15 -32 -18 -12 -66 -9 -68 5 0 6 -2 17 -3 22 -2 6
-3 16 -4 23 0 6 -14 12 -31 12 -25 0 -31 5 -38 33 -6 25 -15 33 -38 37 -23 4
-30 12 -34 35 -3 19 -12 31 -25 33 -30 6 -45 22 -45 48 0 18 -6 23 -32 26 -35
3 -44 21 -34 64 5 19 13 24 36 24 25 0 30 4 30 24 0 26 15 42 45 48 13 2 22
14 25 33 4 22 12 31 37 38 22 7 35 19 42 38 7 22 16 29 35 29 15 0 27 6 27 13
1 6 2 17 4 22 1 6 3 16 3 23 2 13 50 16 68 4z"/>
<path d="M2968 1008 c-3 -28 -8 -34 -33 -38 -24 -4 -31 -11 -35 -35 -4 -24
-11 -31 -35 -35 -21 -4 -30 -11 -30 -25 0 -14 9 -21 30 -25 24 -4 31 -11 35
-35 4 -24 11 -31 35 -35 25 -4 30 -10 33 -38 3 -28 7 -33 25 -30 15 2 23 11
26 28 4 29 17 40 49 40 16 0 22 6 22 23 0 29 18 47 47 47 18 0 23 6 23 25 0
19 -5 25 -23 25 -29 0 -47 18 -47 46 0 18 -6 23 -32 26 -28 3 -34 8 -38 33 -4
21 -12 31 -27 33 -18 3 -22 -2 -25 -30z m70 -131 c3 -32 0 -38 -22 -47 -47
-17 -75 13 -62 66 6 22 11 25 44 22 35 -3 37 -5 40 -41z"/>
<path d="M3895 1532 c-15 -15 -2 -41 24 -50 22 -8 30 -18 33 -39 2 -22 9 -29
33 -33 24 -4 31 -11 35 -35 4 -25 10 -31 37 -33 27 -3 34 -9 41 -35 11 -43 45
-44 52 -2 4 24 11 31 33 33 25 3 32 12 28 36 -3 16 22 36 45 36 19 0 24 5 24
24 0 27 33 56 63 56 13 0 17 6 15 22 -3 18 -10 22 -55 24 -56 3 -69 -5 -75
-46 -2 -19 -10 -26 -30 -28 -27 -3 -32 -11 -29 -40 1 -6 -10 -17 -24 -24 -33
-15 -72 2 -77 34 -2 17 -11 24 -30 26 -23 3 -28 8 -28 30 0 15 -4 32 -8 38 -7
11 -97 16 -107 6z"/>
<path d="M5010 1485 c0 -30 -1 -58 -2 -62 -2 -5 8 -10 22 -11 32 -5 50 -20 50
-42 0 -11 12 -20 33 -26 28 -8 32 -14 35 -47 3 -39 2 -40 -51 -52 -21 -4 -27
-10 -23 -22 8 -21 -11 -43 -38 -43 -28 0 -46 18 -46 47 0 21 -4 23 -52 23 -29
0 -57 -4 -63 -8 -5 -4 -10 -29 -10 -55 -1 -43 2 -48 25 -53 50 -11 51 -13 48
-51 -2 -32 -7 -39 -28 -41 -32 -5 -50 -20 -44 -36 7 -19 -21 -38 -53 -34 -22
2 -29 9 -33 33 -4 24 -11 31 -33 33 -22 3 -32 12 -43 38 -14 32 -17 34 -64 34
l-50 0 0 -60 c0 -57 1 -60 24 -60 28 0 42 -16 38 -42 -2 -12 6 -19 25 -24 53
-11 54 -12 51 -51 -3 -34 -6 -38 -41 -46 -31 -8 -37 -13 -35 -31 2 -16 -4 -23
-29 -31 -32 -9 -33 -10 -33 -67 l0 -58 51 0 c47 0 51 2 64 34 10 24 22 35 44
39 23 5 30 12 33 34 2 22 9 29 31 31 32 4 59 -13 55 -36 -2 -8 5 -18 15 -23 9
-5 25 -13 35 -18 11 -5 17 -20 17 -42 0 -31 -3 -34 -35 -39 l-35 -5 0 -55 0
-55 63 -3 c56 -3 62 -1 62 17 0 36 12 51 40 51 32 0 53 -21 44 -43 -4 -12 2
-18 23 -22 53 -12 54 -13 51 -52 -3 -33 -7 -39 -33 -43 -23 -4 -31 -11 -34
-30 -4 -29 -17 -40 -48 -40 -12 0 -24 -8 -26 -17 -7 -24 6 -109 16 -105 4 1
27 2 52 2 42 0 45 2 53 33 6 25 15 33 37 37 20 4 31 12 35 29 3 13 13 29 22
35 24 14 66 -7 70 -36 2 -17 11 -24 31 -26 28 -3 31 -7 41 -52 5 -24 9 -26 52
-24 55 2 66 16 62 77 -3 38 -6 42 -33 47 -24 4 -31 11 -35 35 -4 24 -11 31
-33 33 -61 7 -57 92 3 92 27 0 30 3 30 30 0 24 5 31 27 36 32 8 56 -5 63 -37
5 -21 12 -24 59 -27 30 -2 57 1 60 6 3 6 4 33 3 61 -4 46 -6 51 -28 51 -28 0
-48 32 -40 66 5 19 13 24 36 24 23 0 30 5 30 19 0 35 12 51 37 51 38 0 65 -18
58 -40 -5 -15 1 -21 27 -28 26 -6 34 -15 38 -38 5 -28 7 -29 60 -29 l55 0 3
58 c3 55 2 57 -21 57 -27 0 -43 15 -49 45 -2 13 -13 21 -31 23 -50 6 -50 88 1
94 20 2 28 9 31 28 4 29 17 40 49 40 22 0 23 3 20 58 l-3 57 -55 0 c-53 0 -55
-1 -60 -29 -4 -23 -12 -32 -37 -38 -26 -7 -33 -14 -33 -32 0 -25 -17 -36 -55
-36 -23 0 -35 17 -35 51 0 14 -7 19 -30 19 -23 0 -31 5 -36 24 -8 34 12 66 41
66 14 0 25 5 26 10 0 6 1 28 1 50 0 22 -1 45 -1 50 -1 7 -23 10 -58 8 -55 -3
-58 -4 -61 -30 -2 -20 -10 -30 -29 -34 -34 -9 -57 6 -61 40 -3 21 -8 26 -32
26 -62 0 -62 84 0 96 20 4 30 13 30 24 0 21 17 36 45 42 16 3 20 12 22 43 3
77 -1 83 -57 83 -46 0 -51 -2 -56 -27 -10 -47 -12 -50 -41 -53 -20 -2 -29 -9
-31 -26 -7 -50 -87 -51 -94 0 -2 16 -11 24 -32 28 -23 4 -32 13 -41 40 -11 33
-14 35 -63 37 l-52 3 0 -55z m266 -293 c7 -4 14 -18 15 -32 3 -19 11 -26 34
-30 24 -4 31 -11 35 -35 4 -24 11 -31 35 -35 25 -4 31 -10 33 -38 2 -23 8 -32
22 -32 33 0 50 -12 50 -36 0 -18 7 -25 33 -32 29 -8 32 -12 32 -47 0 -35 -3
-39 -32 -47 -26 -7 -33 -14 -33 -32 0 -24 -17 -36 -50 -36 -14 0 -20 -9 -22
-32 -2 -28 -8 -34 -30 -36 -22 -3 -30 -10 -36 -35 -6 -25 -15 -33 -38 -37 -20
-4 -30 -12 -32 -27 -4 -30 -26 -45 -59 -41 -22 2 -29 9 -33 33 -4 24 -11 31
-33 33 -20 3 -31 12 -41 37 -10 22 -22 35 -38 37 -18 2 -24 11 -28 38 -4 28
-9 35 -27 33 -23 -3 -39 12 -45 42 -2 13 -14 22 -33 25 -27 5 -30 9 -30 45 0
38 2 40 32 43 28 3 32 7 35 35 2 27 8 33 33 37 24 4 31 11 35 35 4 20 12 31
29 35 24 5 34 18 45 53 4 11 16 17 36 17 26 0 30 3 30 28 0 16 3 32 7 35 9 9
55 9 69 -1z"/>
<path d="M5218 1008 c-3 -29 -7 -33 -35 -36 -29 -3 -33 -7 -33 -32 0 -25 -5
-31 -32 -38 -23 -6 -33 -14 -33 -27 0 -13 10 -21 33 -27 27 -7 32 -13 32 -38
0 -25 4 -30 23 -30 30 0 47 -18 47 -48 0 -19 5 -23 22 -20 17 2 24 11 28 33 4
24 11 31 33 33 19 2 27 9 27 22 0 26 27 50 56 50 19 0 24 5 24 25 0 21 -5 25
-30 25 -29 0 -53 26 -48 52 2 6 -10 14 -27 18 -24 4 -31 11 -35 35 -4 21 -12
31 -27 33 -18 3 -22 -2 -25 -30z m68 -112 c3 -14 3 -34 -1 -46 -5 -17 -13 -21
-43 -18 -32 3 -37 7 -40 31 -5 45 4 57 42 57 29 0 37 -4 42 -24z"/>
<path d="M6140 1526 c-17 -17 -11 -27 24 -41 26 -11 35 -22 38 -42 2 -22 9
-29 33 -33 24 -4 31 -11 35 -35 4 -24 11 -31 35 -35 21 -4 31 -12 33 -27 7
-47 52 -54 52 -8 0 26 12 37 44 39 15 1 22 9 26 31 4 25 10 31 37 33 26 3 32
8 35 30 2 19 13 32 36 44 44 22 47 25 33 41 -9 12 -68 16 -113 8 -4 0 -8 -16
-10 -33 -3 -28 -8 -34 -33 -38 -24 -4 -31 -11 -33 -32 -6 -50 -88 -49 -94 0
-2 21 -9 28 -30 30 -22 3 -27 9 -33 42 l-6 38 -50 -2 c-28 0 -54 -5 -59 -10z"/>
<path d="M7260 1475 c0 -62 1 -64 28 -67 21 -2 28 -9 30 -30 3 -21 10 -28 40
-35 39 -9 48 -26 38 -68 -5 -18 -14 -25 -38 -27 -28 -3 -34 -8 -38 -33 -5 -27
-9 -30 -40 -30 -31 0 -35 3 -40 30 -5 29 -6 30 -65 30 l-60 0 0 -55 c0 -51 2
-55 25 -58 34 -5 50 -20 50 -47 0 -27 -16 -42 -50 -47 -19 -2 -26 -10 -30 -33
-5 -27 -9 -30 -40 -30 -31 0 -35 3 -40 30 -4 24 -11 31 -33 33 -22 3 -32 12
-43 38 -14 32 -17 34 -64 34 -33 0 -50 -4 -51 -12 -1 -7 -1 -33 -1 -58 -1 -42
1 -45 28 -50 23 -4 30 -12 34 -35 4 -25 11 -31 40 -35 33 -5 35 -7 35 -45 0
-37 -2 -40 -37 -48 -31 -7 -38 -14 -38 -33 0 -18 -7 -25 -31 -32 -29 -7 -32
-11 -31 -52 0 -25 0 -51 1 -57 1 -9 18 -13 51 -13 47 0 50 2 64 34 11 26 21
35 43 38 22 2 29 9 33 33 5 27 9 30 40 30 30 0 36 -4 39 -25 4 -29 17 -40 48
-40 16 0 25 -8 29 -27 9 -34 -6 -57 -42 -63 -28 -5 -29 -7 -29 -60 l0 -55 60
0 c59 0 60 1 65 30 5 27 9 30 40 30 31 0 35 -3 40 -30 4 -25 10 -30 38 -33 24
-2 33 -9 38 -27 10 -40 -4 -63 -39 -67 -27 -2 -33 -8 -37 -33 -4 -24 -11 -31
-33 -33 -28 -3 -28 -4 -25 -64 l3 -61 43 1 c23 0 47 1 52 1 6 1 10 12 10 25 0
28 16 43 50 48 17 2 26 10 28 25 8 52 78 57 84 5 2 -23 8 -28 36 -30 33 -3 36
-6 46 -52 5 -24 9 -26 52 -24 55 2 63 12 61 74 -2 42 -4 45 -32 50 -24 4 -31
11 -35 35 -4 24 -11 31 -33 33 -58 7 -58 87 0 94 22 2 29 9 33 33 4 24 11 31
33 33 31 4 60 -15 53 -33 -8 -23 17 -35 71 -35 l53 0 0 59 0 60 -32 3 c-31 3
-33 5 -33 43 0 36 3 40 30 45 24 4 31 11 35 35 9 52 84 45 92 -8 2 -15 12 -23
33 -27 24 -4 31 -11 35 -35 5 -29 7 -30 60 -30 l55 0 2 58 c1 53 0 57 -22 57
-25 0 -41 15 -47 45 -2 13 -14 22 -32 25 -39 7 -53 31 -38 64 7 16 21 26 39
28 22 2 29 9 31 30 3 22 10 30 35 36 28 7 32 13 34 43 4 70 -2 79 -57 79 -47
0 -50 -1 -58 -32 -6 -26 -15 -34 -38 -38 -18 -3 -30 -12 -32 -25 -6 -30 -22
-45 -46 -45 -28 0 -46 18 -46 47 0 18 -6 23 -24 23 -58 0 -66 80 -10 90 28 5
29 8 32 63 l3 57 -54 0 c-54 0 -79 -12 -71 -35 7 -18 -22 -37 -53 -33 -22 2
-29 9 -33 33 -4 24 -11 31 -33 33 -32 4 -51 34 -43 67 4 16 16 25 40 29 28 5
35 12 38 34 2 21 9 28 33 32 28 5 30 8 30 50 1 75 -1 77 -58 76 -51 -1 -52 -2
-55 -34 -3 -34 -6 -36 -54 -46 -21 -5 -28 -12 -28 -31 0 -18 -7 -26 -25 -31
-30 -7 -53 8 -57 39 -2 15 -11 23 -30 25 -31 4 -45 18 -50 52 -3 22 -8 25 -55
27 l-53 1 0 -63z m270 -310 c4 -25 11 -31 40 -35 29 -4 36 -10 40 -35 4 -23
11 -31 30 -34 29 -4 40 -17 40 -48 0 -18 6 -23 24 -23 27 0 40 -14 41 -45 0
-15 9 -21 35 -25 33 -5 35 -7 35 -44 0 -36 -3 -40 -32 -48 -22 -6 -33 -15 -35
-31 -2 -15 -13 -25 -35 -32 -24 -7 -33 -15 -33 -31 0 -24 -16 -40 -45 -46 -13
-2 -22 -14 -25 -33 -4 -25 -11 -31 -40 -35 -29 -4 -36 -10 -40 -35 -5 -27 -9
-30 -40 -30 -32 0 -35 3 -38 33 -3 28 -7 32 -31 32 -31 0 -47 14 -52 45 -3 11
-15 22 -29 25 -19 4 -26 13 -28 38 -2 18 -9 32 -15 33 -7 1 -21 2 -32 3 -14 1
-21 9 -23 28 -3 22 -10 29 -38 34 -25 4 -36 13 -40 29 -9 36 4 65 29 65 31 0
44 11 48 40 3 19 11 26 34 30 24 4 31 11 35 35 4 21 12 31 29 35 17 4 27 15
33 38 8 28 13 32 43 32 32 0 35 3 35 28 0 37 8 44 45 40 25 -2 31 -8 35 -33z"/>
<path d="M7469 1028 c-1 -7 -1 -17 0 -22 3 -16 -22 -36 -45 -36 -19 0 -24 -5
-24 -24 0 -28 -16 -43 -50 -48 -17 -2 -25 -9 -25 -23 0 -14 8 -21 25 -23 34
-5 50 -20 50 -48 0 -18 5 -24 23 -24 30 0 47 -18 47 -48 0 -19 5 -23 22 -20
17 2 24 11 28 33 4 24 11 31 32 33 21 3 27 9 30 30 2 21 11 30 38 38 22 7 35
18 35 29 0 11 -13 22 -35 29 -27 8 -36 17 -38 38 -3 21 -9 27 -30 30 -21 2
-28 9 -32 33 -4 22 -11 31 -28 33 -13 2 -22 -2 -23 -10z m56 -153 c0 -39 -1
-40 -35 -40 -31 0 -35 3 -38 28 -5 46 4 59 40 55 31 -3 33 -5 33 -43z"/>
<path d="M8391 1532 c-24 -8 -11 -39 22 -48 26 -8 33 -15 35 -41 3 -28 7 -32
35 -35 27 -2 33 -8 37 -33 4 -23 11 -30 28 -31 29 -2 39 -12 44 -44 5 -38 41
-34 48 5 4 23 11 31 34 35 23 4 32 12 38 38 7 27 13 32 38 32 25 0 29 4 32 32
2 26 9 33 37 43 66 22 43 51 -39 51 -44 -1 -45 -2 -50 -36 -4 -29 -10 -36 -35
-40 -23 -4 -31 -11 -33 -32 -6 -48 -88 -48 -94 0 -2 21 -10 28 -33 32 -25 4
-31 11 -35 40 -5 34 -6 35 -51 35 -25 1 -51 -1 -58 -3z"/>
<path d="M234 1446 c-8 -21 3 -36 27 -36 15 0 20 6 17 22 -4 27 -35 37 -44 14z"/>
<path d="M1227 1454 c-4 -4 -7 -16 -7 -26 0 -14 6 -19 23 -16 14 2 22 10 22
23 0 20 -25 32 -38 19z"/>
<path d="M2487 1454 c-4 -4 -7 -16 -7 -26 0 -13 7 -18 26 -18 21 0 25 4 22 22
-3 23 -27 35 -41 22z"/>
<path d="M3464 1446 c-8 -21 3 -36 27 -36 15 0 20 6 17 22 -4 27 -35 37 -44
14z"/>
<path d="M4737 1454 c-4 -4 -7 -16 -7 -26 0 -14 6 -19 23 -16 14 2 22 10 22
23 0 20 -25 32 -38 19z"/>
<path d="M5717 1453 c-4 -3 -7 -15 -7 -25 0 -22 45 -26 53 -4 9 24 -28 47 -46
29z"/>
<path d="M6987 1454 c-4 -4 -7 -16 -7 -26 0 -14 6 -19 23 -16 14 2 22 10 22
23 0 20 -25 32 -38 19z"/>
<path d="M7967 1454 c-4 -4 -7 -16 -7 -26 0 -14 6 -19 23 -16 14 2 22 10 22
23 0 20 -25 32 -38 19z"/>
<path d="M1292 1388 c-14 -14 2 -48 22 -48 19 0 29 30 15 46 -14 17 -22 17
-37 2z"/>
<path d="M2561 1390 c-19 -11 -9 -45 14 -45 13 0 21 8 23 21 3 23 -17 37 -37
24z"/>
<path d="M4813 1393 c-18 -7 -16 -40 3 -47 21 -8 34 1 34 24 0 19 -17 30 -37
23z"/>
<path d="M5637 1386 c-10 -26 4 -47 27 -44 15 2 21 10 21 28 0 29 -38 41 -48
16z"/>
<path d="M5791 1390 c-19 -11 -9 -45 14 -45 13 0 21 8 23 21 3 23 -17 37 -37
24z"/>
<path d="M7051 1386 c-13 -16 -4 -46 14 -46 7 0 18 7 25 15 10 12 10 18 0 30
-15 19 -24 19 -39 1z"/>
<path d="M7894 1385 c-9 -23 4 -47 23 -43 22 4 30 38 11 49 -19 13 -28 11 -34
-6z"/>
<path d="M162 1373 c2 -10 13 -19 26 -21 17 -3 22 2 22 17 0 16 -6 21 -26 21
-19 0 -25 -5 -22 -17z"/>
<path d="M300 1371 c0 -24 13 -33 34 -25 27 10 20 44 -9 44 -18 0 -25 -5 -25
-19z"/>
<path d="M1140 1376 c0 -7 7 -20 16 -27 14 -11 18 -10 30 5 7 11 11 23 8 27
-9 15 -54 10 -54 -5z"/>
<path d="M2410 1371 c0 -20 25 -35 41 -25 5 3 9 14 9 25 0 14 -7 19 -25 19
-18 0 -25 -5 -25 -19z"/>
<path d="M3392 1368 c2 -15 10 -23 23 -23 13 0 21 8 23 23 3 18 -1 22 -23 22
-22 0 -26 -4 -23 -22z"/>
<path d="M3534 1379 c-8 -14 21 -43 35 -35 19 12 13 46 -8 46 -11 0 -23 -5
-27 -11z"/>
<path d="M4654 1379 c-8 -14 21 -43 35 -35 19 12 13 46 -8 46 -11 0 -23 -5
-27 -11z"/>
<path d="M6900 1371 c0 -20 25 -35 41 -25 5 3 9 14 9 25 0 14 -7 19 -25 19
-18 0 -25 -5 -25 -19z"/>
<path d="M8030 1371 c0 -24 13 -33 34 -25 27 10 20 44 -9 44 -18 0 -25 -5 -25
-19z"/>
<path d="M237 1307 c-8 -20 9 -41 27 -34 23 9 21 47 -3 47 -10 0 -21 -6 -24
-13z"/>
<path d="M1220 1301 c0 -26 17 -36 35 -21 18 15 8 40 -16 40 -12 0 -19 -7 -19
-19z"/>
<path d="M2484 1305 c-4 -9 -2 -21 4 -27 15 -15 44 -1 40 19 -4 23 -36 29 -44
8z"/>
<path d="M3467 1307 c-3 -8 -2 -20 3 -27 11 -18 42 -4 38 17 -4 22 -34 29 -41
10z"/>
<path d="M4734 1305 c-7 -18 3 -35 21 -35 15 0 24 19 18 38 -6 17 -32 15 -39
-3z"/>
<path d="M5717 1307 c-3 -8 -2 -20 3 -27 11 -18 42 -4 38 17 -4 22 -34 29 -41
10z"/>
<path d="M6982 1298 c4 -30 43 -33 43 -3 0 13 -8 21 -23 23 -20 3 -23 0 -20
-20z"/>
<path d="M7963 1304 c-7 -18 11 -39 26 -30 17 11 13 46 -4 46 -9 0 -18 -7 -22
-16z"/>
<path d="M1850 1158 c0 -29 -17 -48 -43 -48 -11 0 -23 -13 -32 -34 -11 -26
-22 -35 -42 -38 -22 -2 -29 -9 -33 -33 -4 -24 -11 -31 -33 -33 -22 -3 -27 -8
-27 -32 0 -24 -5 -31 -27 -36 -42 -10 -56 -24 -42 -40 6 -8 19 -14 28 -14 24
0 41 -20 41 -46 0 -17 7 -23 27 -26 22 -2 29 -9 33 -33 4 -24 11 -31 33 -33
20 -3 31 -12 42 -38 9 -21 21 -34 32 -34 26 0 43 -19 43 -48 0 -19 5 -23 22
-20 17 2 24 11 28 33 4 24 11 31 32 33 22 3 30 10 36 35 5 20 16 33 28 36 26
4 45 21 38 33 -10 16 17 38 47 38 22 0 29 5 29 19 0 34 12 51 35 51 23 0 40
24 29 41 -3 5 -16 9 -29 9 -23 0 -35 17 -35 51 0 14 -7 19 -29 19 -27 0 -53
19 -50 36 4 24 -3 33 -28 36 -21 2 -29 10 -35 35 -6 25 -14 32 -36 35 -21 2
-28 9 -32 33 -4 22 -11 31 -28 33 -17 3 -22 -1 -22 -20z m56 -176 c7 -4 14
-18 15 -32 3 -17 11 -26 27 -28 52 -8 54 -86 2 -97 -23 -5 -30 -12 -30 -31 0
-17 -7 -25 -24 -30 -38 -9 -66 4 -66 31 0 23 -17 35 -51 35 -16 0 -19 7 -19
45 0 38 3 45 19 45 34 0 51 12 51 35 0 31 46 47 76 27z"/>
<path d="M4099 1173 c-1 -5 -2 -12 -4 -18 -1 -5 -3 -15 -3 -22 -1 -7 -17 -16
-34 -21 -26 -6 -34 -15 -38 -38 -4 -23 -12 -30 -35 -34 -24 -4 -31 -11 -35
-35 -4 -24 -11 -31 -32 -33 -21 -3 -27 -9 -30 -30 -2 -21 -11 -30 -38 -38 -22
-7 -35 -18 -35 -29 0 -11 13 -22 35 -29 27 -8 36 -17 38 -38 2 -20 9 -28 30
-30 20 -2 28 -11 34 -35 6 -25 14 -32 36 -35 21 -2 28 -9 32 -33 4 -23 11 -31
30 -33 35 -5 50 -20 50 -49 0 -20 4 -24 22 -21 17 2 24 11 28 33 4 24 11 31
32 33 22 3 29 10 34 37 5 27 11 34 32 37 18 2 28 10 30 23 5 26 30 45 59 45
16 0 23 6 23 19 0 34 12 51 35 51 44 0 40 45 -5 51 -20 3 -26 11 -28 37 -3 26
-8 32 -26 32 -28 0 -53 19 -58 45 -2 13 -12 21 -30 23 -21 3 -27 10 -32 38 -6
27 -12 34 -30 34 -24 0 -36 17 -36 51 0 14 -7 19 -25 19 -14 0 -26 -3 -26 -7z
m59 -195 c7 -7 12 -22 12 -34 0 -17 7 -23 28 -26 24 -3 27 -7 27 -43 0 -34 -4
-40 -25 -45 -15 -4 -26 -14 -28 -27 -5 -33 -27 -46 -66 -39 -28 5 -35 12 -38
34 -2 21 -9 28 -30 30 -26 3 -28 7 -28 47 0 40 2 44 28 47 20 2 28 9 31 28 1
14 8 28 15 32 17 12 61 9 74 -4z"/>
<path d="M6347 1174 c-3 -3 -3 -12 0 -20 8 -22 -16 -44 -48 -44 -23 0 -29 -4
-29 -22 0 -32 -11 -45 -40 -49 -19 -3 -26 -11 -30 -34 -4 -24 -11 -31 -35 -35
-17 -3 -30 -12 -31 -20 -1 -8 -2 -20 -2 -27 -1 -7 -17 -16 -34 -21 -38 -10
-47 -44 -13 -50 28 -6 56 -32 53 -51 -2 -10 7 -17 27 -21 24 -4 31 -11 35 -35
4 -24 11 -31 32 -33 22 -3 29 -10 34 -37 5 -29 11 -34 38 -37 25 -2 33 -9 41
-35 11 -40 45 -47 45 -10 0 29 18 47 47 47 17 0 23 6 23 23 0 31 11 44 40 48
18 3 26 11 29 29 4 29 17 40 49 40 16 0 22 6 22 23 0 29 18 47 46 47 12 0 24
6 27 13 7 21 -4 37 -27 37 -28 0 -46 18 -46 45 0 15 -9 24 -32 30 -22 7 -34
18 -38 35 -4 17 -14 26 -30 29 -29 4 -40 17 -40 49 0 16 -6 22 -23 22 -29 0
-47 18 -47 47 0 22 -27 33 -43 17z m63 -219 c4 -24 11 -31 35 -35 27 -5 30 -9
30 -45 0 -36 -3 -40 -30 -45 -24 -4 -31 -11 -33 -33 -6 -50 -87 -45 -94 5 -2
16 -11 24 -30 26 -48 6 -48 88 1 94 19 2 27 10 30 28 4 31 18 41 56 38 25 -3
31 -8 35 -33z"/>
<path d="M8590 1157 c0 -29 -18 -47 -47 -47 -17 0 -23 -6 -23 -22 0 -32 -11
-45 -40 -49 -19 -3 -26 -11 -30 -34 -4 -25 -10 -30 -38 -33 -26 -3 -32 -8 -32
-26 0 -28 -18 -46 -47 -46 -18 0 -23 -6 -23 -25 0 -19 5 -25 23 -25 29 0 47
-18 47 -47 0 -17 6 -23 23 -23 31 0 44 -11 48 -40 3 -19 11 -26 34 -30 24 -4
31 -11 35 -35 3 -19 12 -31 25 -33 30 -6 45 -22 45 -48 0 -19 5 -24 25 -24 19
0 25 5 25 23 0 29 18 47 46 47 17 0 23 8 28 34 5 28 12 35 34 38 20 2 28 9 31
28 3 28 17 40 46 40 15 0 24 10 30 33 8 25 16 33 38 35 21 3 27 9 27 28 0 19
-5 24 -25 24 -25 0 -48 28 -43 52 2 7 -11 15 -32 18 -29 4 -36 10 -40 35 -4
24 -11 31 -32 33 -22 3 -29 10 -34 38 -5 26 -11 34 -28 34 -28 0 -46 18 -46
47 0 18 -6 23 -25 23 -19 0 -25 -5 -25 -23z m56 -175 c7 -4 14 -18 15 -32 3
-19 11 -26 34 -30 27 -5 30 -9 30 -45 0 -36 -3 -40 -30 -45 -24 -4 -31 -11
-33 -33 -6 -50 -88 -50 -94 1 -2 21 -9 28 -33 32 -32 6 -41 25 -31 65 4 17 14
25 34 27 20 2 28 9 31 28 3 28 17 40 46 40 11 0 25 -4 31 -8z"/>
<path d="M236 465 c-8 -22 1 -35 25 -35 15 0 20 6 17 22 -4 27 -33 36 -42 13z"/>
<path d="M1227 473 c-15 -14 -7 -43 12 -43 26 0 36 17 21 35 -14 16 -23 19
-33 8z"/>
<path d="M1857 473 c-4 -3 -7 -17 -7 -30 0 -24 -4 -27 -53 -37 -22 -5 -27 -11
-22 -25 7 -22 -10 -38 -45 -43 -20 -2 -26 -9 -28 -35 -3 -28 -7 -33 -28 -33
-26 0 -43 -25 -28 -39 5 -5 30 -11 57 -14 l47 -5 6 39 c6 34 10 38 38 41 25 2
32 8 34 30 6 51 92 45 92 -7 0 -21 5 -25 29 -25 29 0 41 -14 41 -51 0 -17 8
-19 61 -19 56 0 60 1 57 22 -2 14 -11 22 -27 23 -26 2 -51 29 -51 56 0 12 -9
19 -27 21 -22 2 -29 9 -33 33 -4 24 -11 31 -34 35 -23 4 -32 12 -38 38 -8 30
-26 41 -41 25z"/>
<path d="M2487 474 c-4 -4 -7 -16 -7 -26 0 -13 7 -18 26 -18 21 0 25 4 22 22
-3 23 -27 35 -41 22z"/>
<path d="M3464 466 c-8 -21 3 -36 27 -36 15 0 20 6 17 22 -4 27 -35 37 -44 14z"/>
<path d="M4096 446 c-11 -26 -21 -35 -43 -38 -22 -2 -29 -9 -33 -33 -4 -24
-11 -31 -35 -35 -25 -4 -31 -10 -33 -37 -3 -26 -8 -32 -30 -35 -19 -2 -28 -10
-30 -25 -3 -21 1 -23 36 -23 22 0 47 -3 56 -6 12 -5 17 3 22 34 5 35 10 41 33
44 18 2 27 10 29 26 4 30 47 47 80 33 12 -6 22 -17 21 -23 -3 -29 2 -37 28
-40 21 -2 29 -10 35 -35 8 -33 9 -33 68 -33 51 0 60 3 60 18 0 12 -11 21 -32
27 -25 8 -35 18 -42 42 -7 24 -17 33 -35 35 -18 2 -27 11 -33 35 -6 25 -14 32
-36 35 -21 2 -28 9 -32 33 -8 44 -36 44 -54 1z"/>
<path d="M4730 455 c0 -18 5 -25 19 -25 26 0 36 17 21 35 -19 23 -40 18 -40
-10z"/>
<path d="M6344 448 c-8 -27 -15 -34 -41 -36 -28 -3 -32 -7 -35 -35 -2 -27 -8
-33 -33 -37 -25 -4 -31 -10 -33 -37 -3 -26 -8 -32 -30 -35 -19 -2 -28 -10 -30
-25 -3 -20 1 -23 30 -23 18 0 43 -3 54 -6 19 -5 23 -1 29 35 6 34 11 40 33 43
21 2 28 9 30 30 6 48 88 48 94 0 2 -21 10 -28 33 -32 24 -4 31 -11 35 -35 5
-29 8 -30 61 -33 43 -2 58 1 62 12 6 16 -19 36 -46 36 -16 0 -27 21 -27 51 0
14 -7 19 -29 19 -29 0 -41 14 -41 51 0 14 -7 19 -30 19 -25 0 -31 5 -38 32
-11 45 -36 48 -48 6z"/>
<path d="M6987 474 c-4 -4 -7 -16 -7 -26 0 -14 6 -19 23 -16 14 2 22 10 22 23
0 20 -25 32 -38 19z"/>
<path d="M7964 466 c-7 -19 3 -36 22 -36 10 0 14 8 12 22 -4 26 -26 36 -34 14z"/>
<path d="M8596 468 c-3 -7 -6 -22 -8 -33 -2 -14 -12 -21 -36 -23 -23 -2 -32
-8 -32 -22 0 -35 -12 -50 -40 -50 -25 0 -29 -4 -32 -32 -3 -28 -8 -34 -33 -38
-22 -4 -30 -11 -30 -25 0 -17 8 -20 57 -23 l57 -3 3 33 c3 28 8 34 33 38 23 4
31 11 33 32 6 48 88 48 94 0 2 -21 10 -28 33 -32 25 -4 30 -10 33 -38 l3 -32
59 0 c43 0 59 4 64 15 5 15 -7 23 -56 39 -9 2 -18 17 -20 33 -2 21 -9 29 -28
32 -29 4 -40 17 -40 48 0 17 -7 22 -32 25 -28 2 -34 8 -38 33 -5 31 -36 47
-44 23z"/>
<path d="M5714 459 c-9 -15 12 -33 30 -26 9 4 16 13 16 22 0 17 -35 21 -46 4z"/>
<path d="M173 403 c-7 -2 -13 -13 -13 -24 0 -14 7 -19 26 -19 20 0 25 4 22 22
-3 23 -15 30 -35 21z"/>
<path d="M307 404 c-4 -4 -7 -16 -7 -26 0 -13 7 -18 26 -18 21 0 25 4 22 22
-3 23 -27 35 -41 22z"/>
<path d="M1153 403 c-7 -2 -13 -13 -13 -24 0 -13 7 -19 24 -19 29 0 39 12 30
34 -6 16 -18 19 -41 9z"/>
<path d="M1287 390 c-6 -23 21 -43 42 -31 19 12 9 46 -15 49 -15 2 -23 -4 -27
-18z"/>
<path d="M2423 403 c-19 -7 -16 -40 4 -47 21 -8 36 6 31 30 -3 19 -16 25 -35
17z"/>
<path d="M2557 404 c-12 -12 -8 -42 6 -47 21 -8 39 8 35 29 -3 19 -29 30 -41
18z"/>
<path d="M3390 386 c0 -21 5 -26 26 -26 21 0 25 4 22 23 -2 14 -11 23 -25 25
-19 3 -23 -1 -23 -22z"/>
<path d="M3536 395 c-8 -22 1 -35 25 -35 15 0 20 6 17 22 -4 27 -33 36 -42 13z"/>
<path d="M4657 403 c-13 -12 -7 -41 10 -47 21 -9 46 16 37 37 -6 17 -35 23
-47 10z"/>
<path d="M4807 404 c-4 -4 -7 -16 -7 -26 0 -13 7 -18 26 -18 21 0 25 4 22 22
-3 23 -27 35 -41 22z"/>
<path d="M5636 394 c-4 -10 -1 -24 7 -31 19 -19 49 -5 45 21 -4 27 -43 34 -52
10z"/>
<path d="M5787 404 c-12 -12 -8 -42 6 -47 21 -8 39 8 35 29 -3 19 -29 30 -41
18z"/>
<path d="M6913 403 c-7 -2 -13 -13 -13 -24 0 -14 7 -19 26 -19 20 0 25 4 22
22 -3 23 -15 30 -35 21z"/>
<path d="M7043 394 c-9 -25 26 -49 44 -31 8 7 11 21 7 30 -8 22 -43 22 -51 1z"/>
<path d="M7897 404 c-10 -10 -9 -42 2 -48 18 -11 42 6 39 28 -3 21 -28 33 -41
20z"/>
<path d="M8037 404 c-4 -4 -7 -16 -7 -26 0 -13 7 -18 26 -18 21 0 25 4 22 22
-3 23 -27 35 -41 22z"/>
<path d="M233 324 c-3 -8 -1 -20 5 -26 16 -16 42 -2 42 22 0 24 -38 28 -47 4z"/>
<path d="M1222 318 c2 -15 10 -23 23 -23 30 0 27 39 -3 43 -20 3 -23 0 -20
-20z"/>
<path d="M2482 318 c2 -15 10 -23 23 -23 13 0 21 8 23 23 3 18 -1 22 -23 22
-22 0 -26 -4 -23 -22z"/>
<path d="M3467 333 c-12 -11 -7 -33 8 -39 20 -8 45 13 38 32 -5 14 -34 19 -46
7z"/>
<path d="M4732 318 c2 -15 10 -23 23 -23 30 0 27 39 -3 43 -20 3 -23 0 -20
-20z"/>
<path d="M5717 333 c-12 -11 -7 -33 8 -39 20 -8 45 13 38 32 -5 14 -34 19 -46
7z"/>
<path d="M6982 318 c4 -30 43 -33 43 -3 0 13 -8 21 -23 23 -20 3 -23 0 -20
-20z"/>
<path d="M7962 318 c4 -30 43 -33 43 -3 0 13 -8 21 -23 23 -20 3 -23 0 -20
-20z"/>
<path d="M0 105 l0 -25 4500 0 4500 0 0 25 0 25 -4500 0 -4500 0 0 -25z"/>
</g>
</svg>
